<svg width="1024" height="1024" viewBox="0 0 1024 1024" xmlns="http://www.w3.org/2000/svg"><defs><linearGradient id="bg" x1="0" y1="0" x2="1" y2="1"><stop offset="0" stop-color="#2a2f45"/><stop offset="1" stop-color="#16161e"/></linearGradient></defs><rect x="72" y="72" width="880" height="880" rx="200" fill="url(#bg)"/><g transform="translate(132.0,387.4) scale(0.3800)" fill="#c0caf5"><path d="M 1313 30.500 L 1313 42 1332.930 42 L 1352.859 42 1353.180 282.493 L 1353.500 522.986 1379.993 549.493 L 1406.486 576 1464.500 576 L 1522.514 576 1549.264 549.236 L 1576.014 522.472 1567 513.500 L 1557.987 504.529 1533.736 528.764 L 1509.485 553 1493.908 553 L 1478.330 553 1477.665 441.834 C 1477.299 380.693, 1477 295.643, 1477 252.834 L 1477 175 1517.500 175 L 1558 175 1558 163.500 L 1558 152 1517.500 152 L 1477 152 1477 109.242 L 1477 66.484 1453.242 42.742 L 1429.485 19 1371.242 19 L 1313 19 1313 30.500 M 1379.194 277.564 L 1379.647 513.128 1399.564 533.064 L 1419.481 553 1435.806 553 L 1452.130 553 1451.460 314.750 L 1450.791 76.500 1433.656 59.250 L 1416.521 42 1397.631 42 L 1378.741 42 1379.194 277.564 M 30 79.500 L 30 91 53.500 91 L 77 91 77 333.500 L 77 576 116.741 576 L 156.482 576 176.810 555.750 L 197.138 535.500 216.819 555.757 L 236.500 576.015 309.456 576.007 L 382.412 576 408.706 549.757 L 435 523.514 435 403.504 L 435 283.494 408.289 256.747 L 381.578 230 311.026 230 L 240.475 230 225.500 245 C 217.264 253.250, 210.182 260, 209.763 260 C 209.343 260, 209 228.834, 209 190.743 L 209 121.486 182.243 94.743 L 155.486 68 92.743 68 L 30 68 30 79.500 M 103 322 L 103 553 123.259 553 L 143.518 553 163.759 532.741 L 184 512.482 184 322.487 L 184 132.491 163.324 111.746 L 142.648 91 122.824 91 L 103 91 103 322 M 519.743 256.757 L 493 283.514 493 403 L 493 522.486 519.743 549.243 L 546.486 576 659.078 576 L 771.671 576 798.394 549.316 L 825.118 522.632 816.258 513.772 L 807.398 504.912 783.461 528.956 L 759.523 553 692.762 553 L 626 553 626 492.500 L 626 432 697.257 432 L 768.514 432 795.257 405.243 L 822 378.486 822 331 L 822 283.514 795.257 256.757 L 768.514 230 657.500 230 L 546.486 230 519.743 256.757 M 857 241.500 L 857 253 880 253 L 903 253 903 403 L 903 553 880 553 L 857 553 857 564.500 L 857 576 961 576 L 1065 576 1065 564.500 L 1065 553 1050.500 553 L 1036 553 1036 423.241 L 1036 293.482 1056.259 273.241 L 1076.518 253 1096.759 253 L 1117 253 1117 390.758 L 1117 528.516 1140.758 552.258 L 1164.515 576 1230.258 576 L 1296 576 1296 564.500 L 1296 553 1273 553 L 1250 553 1250 418.257 L 1250 283.514 1223.257 256.757 L 1196.514 230 1130.016 230 L 1063.518 230 1043.361 250.139 L 1023.205 270.277 1002.852 250.167 L 982.500 230.056 919.750 230.028 L 857 230 857 241.500 M 1646.250 259.289 L 1617 288.567 1617 403.040 L 1617 517.513 1646.256 546.756 L 1675.513 576 1782.430 576 L 1889.347 576 1918.674 546.587 L 1948 517.173 1948 403.343 L 1948 289.512 1918.256 259.756 L 1888.513 230 1782.006 230.006 L 1675.500 230.011 1646.250 259.289 M 231.242 275.258 L 209 297.516 209 405.017 L 209 512.518 229.259 532.759 L 249.518 553 274.759 553 L 300 553 300 403 L 300 253 276.742 253 L 253.483 253 231.242 275.258 M 325.756 403 L 325.500 553 347.509 553 L 369.519 553 389.259 533.241 L 409 513.482 409 403.260 L 409 293.037 388.994 273.019 L 368.988 253 347.500 253 L 326.013 253 325.756 403 M 539.241 273.259 L 519 293.518 519 403.018 L 519 512.518 539.259 532.759 L 559.518 553 579.759 553 L 600 553 600 403 L 600 253 579.741 253 L 559.482 253 539.241 273.259 M 626 331 L 626 409 657.500 409 L 689 409 689 331 L 689 253 657.500 253 L 626 253 626 331 M 715.244 330.750 L 715.500 408.500 735.469 408.772 L 755.438 409.044 775.719 388.781 L 796 368.518 796 330.917 L 796 293.316 775.911 273.158 L 755.822 253 735.405 253 L 714.988 253 715.244 330.750 M 929 403 L 929 553 969.500 553 L 1010 553 1010 423.241 L 1010 293.482 989.741 273.241 L 969.482 253 949.241 253 L 929 253 929 403 M 1143 385.761 L 1143 518.521 1160.260 535.761 L 1177.521 553 1200.760 553 L 1224 553 1224 423.241 L 1224 293.482 1203.741 273.241 L 1183.482 253 1163.241 253 L 1143 253 1143 385.761 M 1665.742 275.758 L 1643 298.516 1643 403.016 L 1643 507.516 1665.758 530.258 L 1688.516 553 1708.758 553 L 1729 553 1729 403 L 1729 253 1708.742 253 L 1688.484 253 1665.742 275.758 M 1755 403 L 1755 553 1782.250 553 L 1809.500 553 1809.244 403 L 1808.987 253 1781.994 253 L 1755 253 1755 403 M 1835 403 L 1835 553 1855.758 553 L 1876.516 553 1899.258 530.242 L 1922 507.484 1922 403.484 L 1922 299.484 1898.742 276.242 L 1875.484 253 1855.242 253 L 1835 253 1835 403"/></g></svg>